<svg width="1653" height="993" xmlns="http://www.w3.org/2000/svg" xmlns:xlink="http://www.w3.org/1999/xlink" overflow="hidden"><defs><clipPath id="clip0"><rect x="2688" y="347" width="1653" height="993"/></clipPath><clipPath id="clip1"><rect x="2689" y="348" width="1650" height="990"/></clipPath><clipPath id="clip2"><rect x="3366" y="518" width="905" height="612"/></clipPath><clipPath id="clip3"><rect x="3366" y="518" width="905" height="612"/></clipPath><clipPath id="clip4"><rect x="2689" y="348" width="1650" height="990"/></clipPath><clipPath id="clip5"><rect x="2689" y="348" width="1650" height="990"/></clipPath><clipPath id="clip6"><rect x="2689" y="348" width="1650" height="990"/></clipPath><clipPath id="clip7"><rect x="2689" y="348" width="1650" height="990"/></clipPath><clipPath id="clip8"><rect x="2689" y="348" width="1650" height="990"/></clipPath><clipPath id="clip9"><rect x="2689" y="348" width="1650" height="990"/></clipPath><clipPath id="clip10"><rect x="2689" y="348" width="1650" height="990"/></clipPath><clipPath id="clip11"><rect x="2689" y="348" width="1650" height="990"/></clipPath><clipPath id="clip12"><rect x="2689" y="348" width="1650" height="990"/></clipPath><clipPath id="clip13"><rect x="2689" y="348" width="1650" height="990"/></clipPath><clipPath id="clip14"><rect x="2689" y="348" width="1650" height="990"/></clipPath><clipPath id="clip15"><rect x="2689" y="348" width="1650" height="990"/></clipPath><clipPath id="clip16"><rect x="2689" y="348" width="1650" height="990"/></clipPath><clipPath id="clip17"><rect x="2689" y="348" width="1650" height="990"/></clipPath><clipPath id="clip18"><rect x="2689" y="348" width="1650" height="990"/></clipPath><clipPath id="clip19"><rect x="2689" y="348" width="1650" height="990"/></clipPath><clipPath id="clip20"><rect x="2689" y="348" width="1650" height="990"/></clipPath><clipPath id="clip21"><rect x="2689" y="348" width="1650" height="990"/></clipPath><clipPath id="clip22"><rect x="2689" y="348" width="1650" height="990"/></clipPath><clipPath id="clip23"><rect x="2689" y="348" width="1650" height="990"/></clipPath><clipPath id="clip24"><rect x="2689" y="348" width="1650" height="990"/></clipPath><clipPath id="clip25"><rect x="2689" y="348" width="1650" height="990"/></clipPath></defs><g clip-path="url(#clip0)" transform="translate(-2688 -347)"><rect x="2689" y="348" width="1650" height="990" fill="#FFFFFF"/><g clip-path="url(#clip1)"><path d="M3479.61 518.5 3479.61 1127.5M3592.62 518.5 3592.62 1127.5M3704.62 518.5 3704.62 1127.5M3817.63 518.5 3817.63 1127.5M3929.63 518.5 3929.63 1127.5M4042.63 518.5 4042.63 1127.5M4155.64 518.5 4155.64 1127.5M4267.5 518.5 4267.5 1127.5" stroke="#D9D9D9" stroke-width="3.4375" stroke-linejoin="round" stroke-miterlimit="10" fill="none"/></g><g clip-path="url(#clip2)"><path d="M4200.14 1077.04 3367 1077.04 3367 1066.03 4200.14 1066.03ZM3601.12 996.033 3367 996.033 3367 985.032 3601.12 985.032ZM3601.12 915.03 3367 915.03 3367 904.03 3601.12 904.03ZM3588.12 833.027 3367 833.027 3367 823.027 3588.12 823.027ZM3563.12 752.025 3367 752.025 3367 742.024 3563.12 742.024ZM3455.11 671.022 3367 671.022 3367 660.022 3455.11 660.022ZM3486.11 590.019 3367 590.019 3367 579.019 3486.11 579.019Z" fill="#4472C4"/></g><g clip-path="url(#clip3)"><path d="M3777.12 1066.03 3367 1066.03 3367 1056.03 3777.12 1056.03ZM3549.12 985.032 3367 985.032 3367 974.032 3549.12 974.032ZM3484.11 904.03 3367 904.03 3367 893.029 3484.11 893.029ZM3518.12 823.027 3367 823.027 3367 812.027 3518.12 812.027ZM3502.11 742.024 3367 742.024 3367 731.024 3502.11 731.024ZM3689.12 660.022 3367 660.022 3367 650.021 3689.12 650.021ZM3684.12 579.019 3367 579.019 3367 569.019 3684.12 569.019Z" fill="#ED7D31"/></g><g clip-path="url(#clip4)"><path d="M0 0 0.000360892 609" stroke="#D9D9D9" stroke-width="3.4375" stroke-linejoin="round" stroke-miterlimit="10" fill="none" fill-rule="evenodd" transform="matrix(1 0 0 -1 3366.5 1127.5)"/></g><g clip-path="url(#clip5)"><text fill="#595959" font-family="Calibri,Calibri_MSFontService,sans-serif" font-weight="400" font-size="41" transform="matrix(1 0 0 1 3356.49 1192)">0</text></g><g clip-path="url(#clip6)"><text fill="#595959" font-family="Calibri,Calibri_MSFontService,sans-serif" font-weight="400" font-size="41" transform="matrix(1 0 0 1 3469.12 1192)">5</text></g><g clip-path="url(#clip7)"><text fill="#595959" font-family="Calibri,Calibri_MSFontService,sans-serif" font-weight="400" font-size="41" transform="matrix(1 0 0 1 3571.29 1192)">10</text></g><g clip-path="url(#clip8)"><text fill="#595959" font-family="Calibri,Calibri_MSFontService,sans-serif" font-weight="400" font-size="41" transform="matrix(1 0 0 1 3683.92 1192)">15</text></g><g clip-path="url(#clip9)"><text fill="#595959" font-family="Calibri,Calibri_MSFontService,sans-serif" font-weight="400" font-size="41" transform="matrix(1 0 0 1 3796.55 1192)">20</text></g><g clip-path="url(#clip10)"><text fill="#595959" font-family="Calibri,Calibri_MSFontService,sans-serif" font-weight="400" font-size="41" transform="matrix(1 0 0 1 3909.17 1192)">25</text></g><g clip-path="url(#clip11)"><text fill="#595959" font-family="Calibri,Calibri_MSFontService,sans-serif" font-weight="400" font-size="41" transform="matrix(1 0 0 1 4021.8 1192)">30</text></g><g clip-path="url(#clip12)"><text fill="#595959" font-family="Calibri,Calibri_MSFontService,sans-serif" font-weight="400" font-size="41" transform="matrix(1 0 0 1 4134.43 1192)">35</text></g><g clip-path="url(#clip13)"><text fill="#595959" font-family="Calibri,Calibri_MSFontService,sans-serif" font-weight="400" font-size="41" transform="matrix(1 0 0 1 4247.05 1192)">40</text></g><g clip-path="url(#clip14)"><text fill="#595959" font-family="Calibri,Calibri_MSFontService,sans-serif" font-weight="400" font-size="41" transform="matrix(1 0 0 1 3020.97 1078)">myth:categ/gli-dei</text></g><g clip-path="url(#clip15)"><text fill="#595959" font-family="Calibri,Calibri_MSFontService,sans-serif" font-weight="400" font-size="41" transform="matrix(1 0 0 1 2719.06 997)">myth:categ/saghe-familiari-e-epiche</text></g><g clip-path="url(#clip16)"><text fill="#595959" font-family="Calibri,Calibri_MSFontService,sans-serif" font-weight="400" font-size="41" transform="matrix(1 0 0 1 3050.81 915)">myth:categ/eros</text></g><g clip-path="url(#clip17)"><text fill="#595959" font-family="Calibri,Calibri_MSFontService,sans-serif" font-weight="400" font-size="41" transform="matrix(1 0 0 1 2989.64 834)">myth:categ/afrodite</text></g><g clip-path="url(#clip18)"><text fill="#595959" font-family="Calibri,Calibri_MSFontService,sans-serif" font-weight="400" font-size="41" transform="matrix(1 0 0 1 2725 753)">myth:categ/personaggi-e-narrazioni</text></g><g clip-path="url(#clip19)"><text fill="#595959" font-family="Calibri,Calibri_MSFontService,sans-serif" font-weight="400" font-size="41" transform="matrix(1 0 0 1 2956.21 672)">myth:categ/prometeo</text></g><g clip-path="url(#clip20)"><text fill="#595959" font-family="Calibri,Calibri_MSFontService,sans-serif" font-weight="400" font-size="41" transform="matrix(1 0 0 1 2814.35 591)">myth:categ/miti-di-fondazione</text></g><g clip-path="url(#clip21)"><text fill="#595959" font-family="Calibri,Calibri_MSFontService,sans-serif" font-weight="400" font-size="64" transform="matrix(1 0 0 1 3296.73 444)">Titolo del grafico</text></g><g clip-path="url(#clip22)"><rect x="3129" y="1261" width="22" height="22" fill="#ED7D31"/></g><g clip-path="url(#clip23)"><text fill="#595959" font-family="Calibri,Calibri_MSFontService,sans-serif" font-weight="400" font-size="41" transform="matrix(1 0 0 1 3160.78 1284)">% arte-contemporanea</text></g><g clip-path="url(#clip24)"><rect x="3612" y="1261" width="22" height="22" fill="#4472C4"/></g><g clip-path="url(#clip25)"><text fill="#595959" font-family="Calibri,Calibri_MSFontService,sans-serif" font-weight="400" font-size="41" transform="matrix(1 0 0 1 3643.82 1284)">% arte-moderna</text></g><rect x="2689.5" y="348.5" width="1650" height="990" stroke="#D9D9D9" stroke-width="3.4375" stroke-linejoin="round" stroke-miterlimit="10" fill="none"/></g></svg>