<?xml version="1.0" encoding="UTF-8"?><svg xmlns="http://www.w3.org/2000/svg" xmlns:xlink="http://www.w3.org/1999/xlink" fill-opacity="1" color-rendering="auto" color-interpolation="auto" text-rendering="auto" stroke="black" stroke-linecap="square" width="1418" stroke-miterlimit="10" shape-rendering="auto" stroke-opacity="1" fill="black" stroke-dasharray="none" font-weight="normal" stroke-width="1" height="538" font-family="'Dialog'" font-style="normal" stroke-linejoin="miter" font-size="12px" stroke-dashoffset="0" image-rendering="auto">
  <!--Generated by ySVG 2.5-->
  <defs id="genericDefs"/>
  <g>
    <defs id="defs1">
      <clipPath clipPathUnits="userSpaceOnUse" id="clipPath1">
        <path d="M0 0 L1418 0 L1418 538 L0 538 L0 0 Z"/>
      </clipPath>
      <clipPath clipPathUnits="userSpaceOnUse" id="clipPath2">
        <path d="M-165 -7 L1253 -7 L1253 531 L-165 531 L-165 -7 Z"/>
      </clipPath>
    </defs>
    <g fill="white" text-rendering="geometricPrecision" shape-rendering="geometricPrecision" transform="translate(165,7)" stroke="white">
      <rect x="-165" width="1418" height="538" y="-7" clip-path="url(#clipPath2)" stroke="none"/>
    </g>
    <g fill="yellow" text-rendering="geometricPrecision" shape-rendering="geometricPrecision" transform="matrix(1,0,0,1,165,7)" stroke="yellow">
      <rect x="560.3643" y="361.4662" clip-path="url(#clipPath2)" width="142.0005" rx="4" ry="4" height="44" stroke="none"/>
    </g>
    <g font-size="16px" stroke-linecap="butt" transform="matrix(1,0,0,1,165,7)" text-rendering="geometricPrecision" font-family="sans-serif" shape-rendering="geometricPrecision" stroke-miterlimit="1.45">
      <text x="574.0052" xml:space="preserve" y="389.7513" clip-path="url(#clipPath2)" stroke="none">ecrm:E4_Period</text>
      <rect x="560.3643" y="361.4662" clip-path="url(#clipPath2)" fill="none" width="142.0005" rx="4" ry="4" height="44"/>
    </g>
    <g fill="yellow" text-rendering="geometricPrecision" shape-rendering="geometricPrecision" transform="matrix(1,0,0,1,165,7)" stroke="yellow">
      <rect x="645.3783" y="147.5785" clip-path="url(#clipPath2)" width="255.3081" rx="4" ry="4" height="44" stroke="none"/>
    </g>
    <g font-size="16px" stroke-linecap="butt" transform="matrix(1,0,0,1,165,7)" text-rendering="geometricPrecision" font-family="sans-serif" shape-rendering="geometricPrecision" stroke-miterlimit="1.45">
      <text x="652.9659" xml:space="preserve" y="175.8637" clip-path="url(#clipPath2)" stroke="none">efrbroo:F28_Expression_Creation</text>
      <rect x="645.3783" y="147.5785" clip-path="url(#clipPath2)" fill="none" width="255.3081" rx="4" ry="4" height="44"/>
      <text x="358.7983" xml:space="preserve" y="26.6946" clip-path="url(#clipPath2)" stroke="none">"IV secolo a.C."^^xsd:string</text>
      <text x="419.0562" xml:space="preserve" y="88.9368" clip-path="url(#clipPath2)" stroke="none"> "-0400-01-01"^^xsd:date</text>
      <text x="421.2788" xml:space="preserve" y="57.8157" clip-path="url(#clipPath2)" stroke="none">"-0301-12-31"^^xsd:date</text>
    </g>
    <g fill="yellow" text-rendering="geometricPrecision" shape-rendering="geometricPrecision" transform="matrix(1,0,0,1,165,7)" stroke="yellow">
      <rect x="-149.3694" y="325.5067" clip-path="url(#clipPath2)" width="181.88" rx="4" ry="4" height="44" stroke="none"/>
    </g>
    <g font-size="16px" stroke-linecap="butt" transform="matrix(1,0,0,1,165,7)" text-rendering="geometricPrecision" font-family="sans-serif" shape-rendering="geometricPrecision" stroke-miterlimit="1.45">
      <text x="-136.238" xml:space="preserve" y="353.7919" clip-path="url(#clipPath2)" stroke="none">ecrm:E52_Time-Span</text>
      <rect x="-149.3694" y="325.5067" clip-path="url(#clipPath2)" fill="none" width="181.88" rx="4" ry="4" height="44"/>
      <text x="312.2517" xml:space="preserve" y="447.3446" clip-path="url(#clipPath2)" stroke="none">"340-320 a.C."^^xsd:string</text>
      <text x="368.4991" xml:space="preserve" y="509.5868" clip-path="url(#clipPath2)" stroke="none"> "-0340-01-01"^^xsd:date</text>
      <text x="370.7218" xml:space="preserve" y="478.4657" clip-path="url(#clipPath2)" stroke="none">"-0320-12-31"^^xsd:date</text>
      <text x="920.025" xml:space="preserve" y="470.7932" clip-path="url(#clipPath2)" stroke="none">"Arte greca - Età classica"^^xsd:string</text>
      <text x="918.1639" xml:space="preserve" y="439.6721" clip-path="url(#clipPath2)" stroke="none">"periodo"^^xsd:string</text>
    </g>
    <g fill="rgb(255,153,204)" text-rendering="geometricPrecision" shape-rendering="geometricPrecision" transform="matrix(1,0,0,1,165,7)" stroke="rgb(255,153,204)">
      <circle r="10" clip-path="url(#clipPath2)" cx="85.4173" cy="347.5067" stroke="none"/>
    </g>
    <g font-size="16px" stroke-linecap="butt" transform="matrix(1,0,0,1,165,7)" text-rendering="geometricPrecision" font-family="sans-serif" shape-rendering="geometricPrecision" stroke-miterlimit="1.45">
      <text x="101.4173" xml:space="preserve" y="353.7919" clip-path="url(#clipPath2)" stroke="none">myth-when:340-320a-c</text>
      <circle fill="none" stroke-width="3" r="10" clip-path="url(#clipPath2)" cx="85.4173" cy="347.5067"/>
    </g>
    <g fill="rgb(255,153,204)" text-rendering="geometricPrecision" shape-rendering="geometricPrecision" transform="matrix(1,0,0,1,165,7)" stroke="rgb(255,153,204)">
      <circle r="10" clip-path="url(#clipPath2)" cx="314.1306" cy="411.7391" stroke="none"/>
    </g>
    <g font-size="16px" stroke-linecap="butt" transform="matrix(1,0,0,1,165,7)" text-rendering="geometricPrecision" font-family="sans-serif" shape-rendering="geometricPrecision" stroke-miterlimit="1.45">
      <text x="330.1306" xml:space="preserve" y="418.0243" clip-path="url(#clipPath2)" stroke="none">myth-when:data</text>
      <circle fill="none" stroke-width="3" r="10" clip-path="url(#clipPath2)" cx="314.1306" cy="411.7391"/>
    </g>
    <g fill="rgb(255,153,204)" text-rendering="geometricPrecision" shape-rendering="geometricPrecision" transform="matrix(1,0,0,1,165,7)" stroke="rgb(255,153,204)">
      <circle r="10" clip-path="url(#clipPath2)" cx="85.4173" cy="188.2394" stroke="none"/>
    </g>
    <g font-size="16px" stroke-linecap="butt" transform="matrix(1,0,0,1,165,7)" text-rendering="geometricPrecision" font-family="sans-serif" shape-rendering="geometricPrecision" stroke-miterlimit="1.45">
      <text x="101.4173" xml:space="preserve" y="194.5246" clip-path="url(#clipPath2)" stroke="none">myth-when:iv-secolo-a-c</text>
      <circle fill="none" stroke-width="3" r="10" clip-path="url(#clipPath2)" cx="85.4173" cy="188.2394"/>
    </g>
    <g fill="yellow" text-rendering="geometricPrecision" shape-rendering="geometricPrecision" transform="matrix(1,0,0,1,165,7)" stroke="yellow">
      <rect x="-149.3694" y="166.2394" clip-path="url(#clipPath2)" width="181.88" rx="4" ry="4" height="44" stroke="none"/>
    </g>
    <g font-size="16px" stroke-linecap="butt" transform="matrix(1,0,0,1,165,7)" text-rendering="geometricPrecision" font-family="sans-serif" shape-rendering="geometricPrecision" stroke-miterlimit="1.45">
      <text x="-136.238" xml:space="preserve" y="194.5246" clip-path="url(#clipPath2)" stroke="none">ecrm:E52_Time-Span</text>
      <rect x="-149.3694" y="166.2394" clip-path="url(#clipPath2)" fill="none" width="181.88" rx="4" ry="4" height="44"/>
    </g>
    <g fill="rgb(255,153,204)" text-rendering="geometricPrecision" shape-rendering="geometricPrecision" transform="matrix(1,0,0,1,165,7)" stroke="rgb(255,153,204)">
      <circle r="10" clip-path="url(#clipPath2)" cx="344.2241" cy="150.0931" stroke="none"/>
    </g>
    <g font-size="16px" stroke-linecap="butt" transform="matrix(1,0,0,1,165,7)" text-rendering="geometricPrecision" font-family="sans-serif" shape-rendering="geometricPrecision" stroke-miterlimit="1.45">
      <text x="360.2241" xml:space="preserve" y="156.3783" clip-path="url(#clipPath2)" stroke="none">myth-where:secolo</text>
      <circle fill="none" stroke-width="3" r="10" clip-path="url(#clipPath2)" cx="344.2241" cy="150.0931"/>
    </g>
    <g fill="rgb(255,153,204)" text-rendering="geometricPrecision" shape-rendering="geometricPrecision" transform="matrix(1,0,0,1,165,7)" stroke="rgb(255,153,204)">
      <circle r="10" clip-path="url(#clipPath2)" cx="344.2241" cy="113.3313" stroke="none"/>
    </g>
    <g font-size="16px" stroke-linecap="butt" transform="matrix(1,0,0,1,165,7)" text-rendering="geometricPrecision" font-family="sans-serif" shape-rendering="geometricPrecision" stroke-miterlimit="1.45">
      <text x="360.2241" xml:space="preserve" y="119.6165" clip-path="url(#clipPath2)" stroke="none">&lt;http://www.wikidata.org/entity/Q25335&gt;</text>
      <circle fill="none" stroke-width="3" r="10" clip-path="url(#clipPath2)" cx="344.2241" cy="113.3313"/>
    </g>
    <g fill="rgb(255,153,204)" text-rendering="geometricPrecision" shape-rendering="geometricPrecision" transform="matrix(1,0,0,1,165,7)" stroke="rgb(255,153,204)">
      <circle r="10" clip-path="url(#clipPath2)" cx="773.0324" cy="261.0291" stroke="none"/>
    </g>
    <g font-size="16px" stroke-linecap="butt" transform="matrix(1,0,0,1,165,7)" text-rendering="geometricPrecision" font-family="sans-serif" shape-rendering="geometricPrecision" stroke-miterlimit="1.45">
      <text x="789.0323" xml:space="preserve" y="267.3143" clip-path="url(#clipPath2)" stroke="none">myth-item:81-creation</text>
      <circle fill="none" stroke-width="3" r="10" clip-path="url(#clipPath2)" cx="773.0324" cy="261.0291"/>
    </g>
    <g fill="rgb(255,153,204)" text-rendering="geometricPrecision" shape-rendering="geometricPrecision" transform="matrix(1,0,0,1,165,7)" stroke="rgb(255,153,204)">
      <circle r="10" clip-path="url(#clipPath2)" cx="773.0324" cy="383.4662" stroke="none"/>
    </g>
    <g font-size="16px" stroke-linecap="butt" transform="matrix(1,0,0,1,165,7)" text-rendering="geometricPrecision" font-family="sans-serif" shape-rendering="geometricPrecision" stroke-miterlimit="1.45">
      <text x="789.0323" xml:space="preserve" y="389.7513" clip-path="url(#clipPath2)" stroke="none">myth-when:arte-greca-eta-classica</text>
      <circle fill="none" stroke-width="3" r="10" clip-path="url(#clipPath2)" cx="773.0324" cy="383.4662"/>
    </g>
    <g fill="rgb(255,153,204)" text-rendering="geometricPrecision" shape-rendering="geometricPrecision" transform="matrix(1,0,0,1,165,7)" stroke="rgb(255,153,204)">
      <circle r="10" clip-path="url(#clipPath2)" cx="905.6305" cy="495.1877" stroke="none"/>
    </g>
    <g font-size="16px" stroke-linecap="butt" transform="matrix(1,0,0,1,165,7)" text-rendering="geometricPrecision" font-family="sans-serif" shape-rendering="geometricPrecision" stroke-miterlimit="1.45">
      <text x="921.6305" xml:space="preserve" y="501.4729" clip-path="url(#clipPath2)" stroke="none">&lt;http://www.wikidata.org/entity/Q16064885&gt;</text>
      <circle fill="none" stroke-width="3" r="10" clip-path="url(#clipPath2)" cx="905.6305" cy="495.1877"/>
    </g>
    <g stroke-linecap="butt" transform="matrix(1,0,0,1,165,7)" fill="green" text-rendering="geometricPrecision" shape-rendering="geometricPrecision" stroke="green" stroke-miterlimit="1.45">
      <path fill="none" d="M85.4173 361.5067 L85.4173 503.9813 L340.9406 503.9813" clip-path="url(#clipPath2)"/>
    </g>
    <g stroke-linecap="butt" transform="matrix(1,0,0,1,165,7)" fill-opacity="0" fill="rgb(0,0,0)" text-rendering="geometricPrecision" shape-rendering="geometricPrecision" stroke="rgb(0,0,0)" stroke-opacity="0" stroke-miterlimit="1.45">
      <path d="M85.4173 353.5067 C87.6264 353.5067 89.4173 355.2976 89.4173 357.5067 C89.4173 359.7159 87.6264 361.5067 85.4173 361.5067 C83.2082 361.5067 81.4173 359.7159 81.4173 357.5067 C81.4173 355.2976 83.2082 353.5067 85.4173 353.5067 Z" stroke="none" clip-path="url(#clipPath2)"/>
    </g>
    <g stroke-linecap="butt" transform="matrix(1,0,0,1,165,7)" fill="green" text-rendering="geometricPrecision" shape-rendering="geometricPrecision" stroke="green" stroke-miterlimit="1.45">
      <path fill="none" d="M85.4173 353.5067 C87.6264 353.5067 89.4173 355.2976 89.4173 357.5067 C89.4173 359.7159 87.6264 361.5067 85.4173 361.5067 C83.2082 361.5067 81.4173 359.7159 81.4173 357.5067 C81.4173 355.2976 83.2082 353.5067 85.4173 353.5067 Z" clip-path="url(#clipPath2)"/>
      <path fill="white" d="M355.9406 503.9813 L339.9406 497.9813 L339.9406 509.9813 Z" clip-path="url(#clipPath2)" stroke="none"/>
      <path fill="none" d="M355.9406 503.9813 L339.9406 497.9813 L339.9406 509.9813 Z" clip-path="url(#clipPath2)"/>
      <rect x="105.1438" y="492.1805" clip-path="url(#clipPath2)" fill="white" width="221.9453" height="23.6016" stroke="none"/>
      <text x="107.1438" font-size="16px" y="510.2665" clip-path="url(#clipPath2)" font-family="sans-serif" stroke="none" xml:space="preserve">crm:P82a_begin_of_the_begin</text>
      <path fill="none" d="M85.4173 361.5067 L85.4173 473.9932 L340.9406 473.2156" clip-path="url(#clipPath2)"/>
    </g>
    <g stroke-linecap="butt" transform="matrix(1,0,0,1,165,7)" fill-opacity="0" fill="rgb(0,0,0)" text-rendering="geometricPrecision" shape-rendering="geometricPrecision" stroke="rgb(0,0,0)" stroke-opacity="0" stroke-miterlimit="1.45">
      <path d="M85.4173 353.5067 C87.6264 353.5067 89.4173 355.2976 89.4173 357.5067 C89.4173 359.7159 87.6264 361.5067 85.4173 361.5067 C83.2082 361.5067 81.4173 359.7159 81.4173 357.5067 C81.4173 355.2976 83.2082 353.5067 85.4173 353.5067 Z" stroke="none" clip-path="url(#clipPath2)"/>
    </g>
    <g stroke-linecap="butt" transform="matrix(1,0,0,1,165,7)" fill="green" text-rendering="geometricPrecision" shape-rendering="geometricPrecision" stroke="green" stroke-miterlimit="1.45">
      <path fill="none" d="M85.4173 353.5067 C87.6264 353.5067 89.4173 355.2976 89.4173 357.5067 C89.4173 359.7159 87.6264 361.5067 85.4173 361.5067 C83.2082 361.5067 81.4173 359.7159 81.4173 357.5067 C81.4173 355.2976 83.2082 353.5067 85.4173 353.5067 Z" clip-path="url(#clipPath2)"/>
      <path fill="white" d="M355.9406 473.17 L339.9224 467.2187 L339.9589 479.2187 Z" clip-path="url(#clipPath2)" stroke="none"/>
      <path fill="none" d="M355.9406 473.17 L339.9224 467.2187 L339.9589 479.2187 Z" clip-path="url(#clipPath2)"/>
      <rect x="117.5969" y="461.7947" clip-path="url(#clipPath2)" fill="white" width="197.0391" height="23.6016" stroke="none"/>
      <text x="119.5969" font-size="16px" y="479.8806" clip-path="url(#clipPath2)" font-family="sans-serif" stroke="none" xml:space="preserve">crm:P82b_end_of_the_end</text>
      <path fill="none" d="M85.4173 361.5067 L85.4173 441.7391 L289.1306 441.7391" clip-path="url(#clipPath2)"/>
    </g>
    <g stroke-linecap="butt" transform="matrix(1,0,0,1,165,7)" fill-opacity="0" fill="rgb(0,0,0)" text-rendering="geometricPrecision" shape-rendering="geometricPrecision" stroke="rgb(0,0,0)" stroke-opacity="0" stroke-miterlimit="1.45">
      <path d="M85.4173 353.5067 C87.6264 353.5067 89.4173 355.2976 89.4173 357.5067 C89.4173 359.7159 87.6264 361.5067 85.4173 361.5067 C83.2082 361.5067 81.4173 359.7159 81.4173 357.5067 C81.4173 355.2976 83.2082 353.5067 85.4173 353.5067 Z" stroke="none" clip-path="url(#clipPath2)"/>
    </g>
    <g stroke-linecap="butt" transform="matrix(1,0,0,1,165,7)" fill="green" text-rendering="geometricPrecision" shape-rendering="geometricPrecision" stroke="green" stroke-miterlimit="1.45">
      <path fill="none" d="M85.4173 353.5067 C87.6264 353.5067 89.4173 355.2976 89.4173 357.5067 C89.4173 359.7159 87.6264 361.5067 85.4173 361.5067 C83.2082 361.5067 81.4173 359.7159 81.4173 357.5067 C81.4173 355.2976 83.2082 353.5067 85.4173 353.5067 Z" clip-path="url(#clipPath2)"/>
      <path fill="white" d="M304.1306 441.7391 L288.1306 435.7391 L288.1306 447.7391 Z" clip-path="url(#clipPath2)" stroke="none"/>
      <path fill="none" d="M304.1306 441.7391 L288.1306 435.7391 L288.1306 447.7391 Z" clip-path="url(#clipPath2)"/>
      <rect x="155.7505" y="429.9383" clip-path="url(#clipPath2)" fill="white" width="68.9219" height="23.6016" stroke="none"/>
      <text x="157.7505" font-size="16px" y="448.0243" clip-path="url(#clipPath2)" font-family="sans-serif" stroke="none" xml:space="preserve">rdfs:label</text>
      <path fill="none" d="M75.4173 347.5067 L40.5118 347.5067" clip-path="url(#clipPath2)" stroke="black"/>
      <path fill="black" d="M32.5118 347.5067 L44.5118 352.5067 L41.5118 347.5067 L44.5118 342.5067 Z" clip-path="url(#clipPath2)" stroke="none"/>
      <path fill="none" d="M85.4173 361.5067 L85.4173 407.8168 L293.1337 411.379" clip-path="url(#clipPath2)" stroke="navy"/>
      <path fill="navy" d="M85.4173 353.5067 C87.6264 353.5067 89.4173 355.2976 89.4173 357.5067 C89.4173 359.7159 87.6264 361.5067 85.4173 361.5067 C83.2082 361.5067 81.4173 359.7159 81.4173 357.5067 C81.4173 355.2976 83.2082 353.5067 85.4173 353.5067 Z" clip-path="url(#clipPath2)" stroke="none"/>
      <path fill="navy" d="M304.1321 411.5677 L292.2368 405.3628 L292.031 417.361 Z" clip-path="url(#clipPath2)" stroke="none"/>
      <rect x="121.5083" y="397.8132" clip-path="url(#clipPath2)" fill="white" width="137.4062" height="23.6016" stroke="none"/>
    </g>
    <g stroke-linecap="butt" font-size="16px" transform="matrix(1,0,0,1,165,7)" fill="navy" text-rendering="geometricPrecision" font-family="sans-serif" shape-rendering="geometricPrecision" stroke="navy" stroke-miterlimit="1.45">
      <text x="123.5083" xml:space="preserve" y="415.8991" clip-path="url(#clipPath2)" stroke="none">ecrm:P2_has_type</text>
    </g>
    <g stroke-linecap="butt" transform="matrix(1,0,0,1,165,7)" fill="green" text-rendering="geometricPrecision" shape-rendering="geometricPrecision" stroke="green" stroke-miterlimit="1.45">
      <path fill="none" d="M85.4173 174.2394 L85.4173 83.3313 L391.4976 83.3313" clip-path="url(#clipPath2)"/>
    </g>
    <g stroke-linecap="butt" transform="matrix(1,0,0,1,165,7)" fill-opacity="0" fill="rgb(0,0,0)" text-rendering="geometricPrecision" shape-rendering="geometricPrecision" stroke="rgb(0,0,0)" stroke-opacity="0" stroke-miterlimit="1.45">
      <path d="M85.4173 182.2394 C83.2082 182.2394 81.4173 180.4485 81.4173 178.2394 C81.4173 176.0303 83.2082 174.2394 85.4173 174.2394 C87.6264 174.2394 89.4173 176.0303 89.4173 178.2394 C89.4173 180.4485 87.6264 182.2394 85.4173 182.2394 Z" stroke="none" clip-path="url(#clipPath2)"/>
    </g>
    <g stroke-linecap="butt" transform="matrix(1,0,0,1,165,7)" fill="green" text-rendering="geometricPrecision" shape-rendering="geometricPrecision" stroke="green" stroke-miterlimit="1.45">
      <path fill="none" d="M85.4173 182.2394 C83.2082 182.2394 81.4173 180.4485 81.4173 178.2394 C81.4173 176.0303 83.2082 174.2394 85.4173 174.2394 C87.6264 174.2394 89.4173 176.0303 89.4173 178.2394 C89.4173 180.4485 87.6264 182.2394 85.4173 182.2394 Z" clip-path="url(#clipPath2)"/>
      <path fill="white" d="M406.4976 83.3313 L390.4976 77.3313 L390.4976 89.3313 Z" clip-path="url(#clipPath2)" stroke="none"/>
      <path fill="none" d="M406.4976 83.3313 L390.4976 77.3313 L390.4976 89.3313 Z" clip-path="url(#clipPath2)"/>
      <rect x="130.4223" y="71.5305" clip-path="url(#clipPath2)" fill="white" width="221.9453" height="23.6016" stroke="none"/>
      <text x="132.4223" font-size="16px" y="89.6165" clip-path="url(#clipPath2)" font-family="sans-serif" stroke="none" xml:space="preserve">crm:P82a_begin_of_the_begin</text>
      <path fill="none" d="M85.4173 174.2394 L85.4173 52.2102 L391.4976 52.2102" clip-path="url(#clipPath2)"/>
    </g>
    <g stroke-linecap="butt" transform="matrix(1,0,0,1,165,7)" fill-opacity="0" fill="rgb(0,0,0)" text-rendering="geometricPrecision" shape-rendering="geometricPrecision" stroke="rgb(0,0,0)" stroke-opacity="0" stroke-miterlimit="1.45">
      <path d="M85.4173 182.2394 C83.2082 182.2394 81.4173 180.4485 81.4173 178.2394 C81.4173 176.0303 83.2082 174.2394 85.4173 174.2394 C87.6264 174.2394 89.4173 176.0303 89.4173 178.2394 C89.4173 180.4485 87.6264 182.2394 85.4173 182.2394 Z" stroke="none" clip-path="url(#clipPath2)"/>
    </g>
    <g stroke-linecap="butt" transform="matrix(1,0,0,1,165,7)" fill="green" text-rendering="geometricPrecision" shape-rendering="geometricPrecision" stroke="green" stroke-miterlimit="1.45">
      <path fill="none" d="M85.4173 182.2394 C83.2082 182.2394 81.4173 180.4485 81.4173 178.2394 C81.4173 176.0303 83.2082 174.2394 85.4173 174.2394 C87.6264 174.2394 89.4173 176.0303 89.4173 178.2394 C89.4173 180.4485 87.6264 182.2394 85.4173 182.2394 Z" clip-path="url(#clipPath2)"/>
      <path fill="white" d="M406.4976 52.2102 L390.4976 46.2102 L390.4976 58.2102 Z" clip-path="url(#clipPath2)" stroke="none"/>
      <path fill="none" d="M406.4976 52.2102 L390.4976 46.2102 L390.4976 58.2102 Z" clip-path="url(#clipPath2)"/>
      <rect x="142.8754" y="40.4094" clip-path="url(#clipPath2)" fill="white" width="197.0391" height="23.6016" stroke="none"/>
      <text x="144.8754" font-size="16px" y="58.4954" clip-path="url(#clipPath2)" font-family="sans-serif" stroke="none" xml:space="preserve">crm:P82b_end_of_the_end</text>
      <path fill="none" d="M85.4173 174.2394 L85.4173 21.0891 L339.2241 21.0891" clip-path="url(#clipPath2)"/>
    </g>
    <g stroke-linecap="butt" transform="matrix(1,0,0,1,165,7)" fill-opacity="0" fill="rgb(0,0,0)" text-rendering="geometricPrecision" shape-rendering="geometricPrecision" stroke="rgb(0,0,0)" stroke-opacity="0" stroke-miterlimit="1.45">
      <path d="M85.4173 182.2394 C83.2082 182.2394 81.4173 180.4485 81.4173 178.2394 C81.4173 176.0303 83.2082 174.2394 85.4173 174.2394 C87.6264 174.2394 89.4173 176.0303 89.4173 178.2394 C89.4173 180.4485 87.6264 182.2394 85.4173 182.2394 Z" stroke="none" clip-path="url(#clipPath2)"/>
    </g>
    <g stroke-linecap="butt" transform="matrix(1,0,0,1,165,7)" fill="green" text-rendering="geometricPrecision" shape-rendering="geometricPrecision" stroke="green" stroke-miterlimit="1.45">
      <path fill="none" d="M85.4173 182.2394 C83.2082 182.2394 81.4173 180.4485 81.4173 178.2394 C81.4173 176.0303 83.2082 174.2394 85.4173 174.2394 C87.6264 174.2394 89.4173 176.0303 89.4173 178.2394 C89.4173 180.4485 87.6264 182.2394 85.4173 182.2394 Z" clip-path="url(#clipPath2)"/>
      <path fill="white" d="M354.2241 21.0891 L338.2241 15.0891 L338.2241 27.0891 Z" clip-path="url(#clipPath2)" stroke="none"/>
      <path fill="none" d="M354.2241 21.0891 L338.2241 15.0891 L338.2241 27.0891 Z" clip-path="url(#clipPath2)"/>
      <rect x="180.7973" y="9.2884" clip-path="url(#clipPath2)" fill="white" width="68.9219" height="23.6016" stroke="none"/>
      <text x="182.7973" font-size="16px" y="27.3743" clip-path="url(#clipPath2)" font-family="sans-serif" stroke="none" xml:space="preserve">rdfs:label</text>
      <path fill="none" d="M75.4173 188.2394 L40.5118 188.2394" clip-path="url(#clipPath2)" stroke="black"/>
      <path fill="black" d="M32.5118 188.2394 L44.5118 193.2394 L41.5118 188.2394 L44.5118 183.2394 Z" clip-path="url(#clipPath2)" stroke="none"/>
      <path fill="none" d="M85.4173 174.2394 L85.4173 150.0931 L323.2241 150.0931" clip-path="url(#clipPath2)" stroke="navy"/>
      <path fill="navy" d="M85.4173 182.2394 C83.2082 182.2394 81.4173 180.4485 81.4173 178.2394 C81.4173 176.0303 83.2082 174.2394 85.4173 174.2394 C87.6264 174.2394 89.4173 176.0303 89.4173 178.2394 C89.4173 180.4485 87.6264 182.2394 85.4173 182.2394 Z" clip-path="url(#clipPath2)" stroke="none"/>
      <path fill="navy" d="M334.2241 150.0931 L322.2241 144.0931 L322.2241 156.0931 Z" clip-path="url(#clipPath2)" stroke="none"/>
      <rect x="136.5551" y="138.2924" clip-path="url(#clipPath2)" fill="white" width="137.4062" height="23.6016" stroke="none"/>
    </g>
    <g stroke-linecap="butt" font-size="16px" transform="matrix(1,0,0,1,165,7)" fill="navy" text-rendering="geometricPrecision" font-family="sans-serif" shape-rendering="geometricPrecision" stroke="navy" stroke-miterlimit="1.45">
      <text x="138.5551" xml:space="preserve" y="156.3783" clip-path="url(#clipPath2)" stroke="none">ecrm:P2_has_type</text>
    </g>
    <g text-rendering="geometricPrecision" stroke-miterlimit="1.45" shape-rendering="geometricPrecision" transform="matrix(1,0,0,1,165,7)" stroke-linecap="butt">
      <path fill="none" d="M85.4173 178.2394 L85.4173 113.3313 L326.2241 113.3313" clip-path="url(#clipPath2)"/>
      <path d="M334.2241 113.3313 L322.2241 108.3313 L325.2241 113.3313 L322.2241 118.3313 Z" clip-path="url(#clipPath2)" stroke="none"/>
      <rect x="160.1332" y="101.5305" clip-path="url(#clipPath2)" fill="white" width="90.25" height="23.6016" stroke="none"/>
      <text x="162.1332" font-size="16px" y="119.6165" clip-path="url(#clipPath2)" font-family="sans-serif" stroke="none" xml:space="preserve">owl:sameAs</text>
      <path fill="none" d="M759.0323 261.0291 L85.4173 261.0291 L85.4173 326.5067" clip-path="url(#clipPath2)" stroke="navy"/>
      <path fill="navy" d="M767.0323 261.0291 C767.0323 263.2383 765.2415 265.0291 763.0323 265.0291 C760.8232 265.0291 759.0323 263.2383 759.0323 261.0291 C759.0323 258.82 760.8232 257.0291 763.0323 257.0291 C765.2415 257.0291 767.0323 258.82 767.0323 261.0291 Z" clip-path="url(#clipPath2)" stroke="none"/>
      <path fill="navy" d="M85.4173 337.5067 L91.4173 325.5067 L79.4173 325.5067 Z" clip-path="url(#clipPath2)" stroke="none"/>
      <rect x="330.9553" y="249.2283" clip-path="url(#clipPath2)" fill="white" width="177.4141" height="23.6016" stroke="none"/>
    </g>
    <g stroke-linecap="butt" font-size="16px" transform="matrix(1,0,0,1,165,7)" fill="navy" text-rendering="geometricPrecision" font-family="sans-serif" shape-rendering="geometricPrecision" stroke="navy" stroke-miterlimit="1.45">
      <text x="332.9553" xml:space="preserve" y="267.3143" clip-path="url(#clipPath2)" stroke="none">ecrm:P4_has_time-span</text>
    </g>
    <g text-rendering="geometricPrecision" stroke-miterlimit="1.45" shape-rendering="geometricPrecision" transform="matrix(1,0,0,1,165,7)" stroke-linecap="butt">
      <path fill="none" d="M773.0323 251.0291 L773.0323 199.5718" clip-path="url(#clipPath2)"/>
      <path d="M773.0323 191.5718 L768.0323 203.5718 L773.0323 200.5718 L778.0323 203.5718 Z" clip-path="url(#clipPath2)" stroke="none"/>
      <path fill="none" d="M761.1761 253.5841 L720.3681 227.9593 L140.5424 227.9593 L102.4551 200.5159" clip-path="url(#clipPath2)" stroke="navy"/>
      <path fill="navy" d="M767.9511 257.8384 C766.7763 259.7093 764.3073 260.2736 762.4365 259.0988 C760.5656 257.924 760.0013 255.455 761.1761 253.5841 C762.3509 251.7132 764.8199 251.149 766.6907 252.3237 C768.5616 253.4985 769.1259 255.9675 767.9511 257.8384 Z" clip-path="url(#clipPath2)" stroke="none"/>
      <path fill="navy" d="M93.5306 194.0853 L99.7589 205.9684 L106.774 196.2325 Z" clip-path="url(#clipPath2)" stroke="none"/>
      <rect x="341.7482" y="216.1585" clip-path="url(#clipPath2)" fill="white" width="177.4141" height="23.6016" stroke="none"/>
    </g>
    <g stroke-linecap="butt" font-size="16px" transform="matrix(1,0,0,1,165,7)" fill="navy" text-rendering="geometricPrecision" font-family="sans-serif" shape-rendering="geometricPrecision" stroke="navy" stroke-miterlimit="1.45">
      <text x="343.7483" xml:space="preserve" y="234.2445" clip-path="url(#clipPath2)" stroke="none">ecrm:P4_has_time-span</text>
      <path fill="none" d="M761.3597 268.7588 L727.7289 291.0291 L146.3234 291.0291 L100.8158 333.2278" clip-path="url(#clipPath2)"/>
      <path d="M768.0298 264.3419 C769.2495 266.1838 768.7451 268.6657 766.9033 269.8854 C765.0613 271.1051 762.5794 270.6007 761.3597 268.7588 C760.14 266.9169 760.6444 264.435 762.4863 263.2153 C764.3282 261.9956 766.8101 262.5 768.0298 264.3419 Z" stroke="none" clip-path="url(#clipPath2)"/>
      <path d="M92.7499 340.7072 L105.6287 336.9475 L97.4694 328.1483 Z" stroke="none" clip-path="url(#clipPath2)"/>
    </g>
    <g stroke-linecap="butt" transform="matrix(1,0,0,1,165,7)" fill="white" text-rendering="geometricPrecision" shape-rendering="geometricPrecision" stroke="white" stroke-miterlimit="1.45">
      <rect x="357.2137" width="159.625" height="23.6016" y="279.2283" clip-path="url(#clipPath2)" stroke="none"/>
    </g>
    <g stroke-linecap="butt" font-size="16px" transform="matrix(1,0,0,1,165,7)" fill="navy" text-rendering="geometricPrecision" font-family="sans-serif" shape-rendering="geometricPrecision" stroke="navy" stroke-miterlimit="1.45">
      <text x="359.2137" xml:space="preserve" y="297.3143" clip-path="url(#clipPath2)" stroke="none">ecrm:P86_falls_within</text>
      <path fill="none" d="M773.0323 275.0291 L773.0323 362.4662" clip-path="url(#clipPath2)"/>
      <path d="M773.0323 267.0291 C775.2415 267.0291 777.0323 268.82 777.0323 271.0291 C777.0323 273.2383 775.2415 275.0291 773.0323 275.0291 C770.8232 275.0291 769.0323 273.2383 769.0323 271.0291 C769.0323 268.82 770.8232 267.0291 773.0323 267.0291 Z" stroke="none" clip-path="url(#clipPath2)"/>
      <path d="M773.0323 373.4662 L779.0323 361.4662 L767.0323 361.4662 Z" stroke="none" clip-path="url(#clipPath2)"/>
    </g>
    <g stroke-linecap="butt" transform="matrix(1,0,0,1,165,7)" fill="white" text-rendering="geometricPrecision" shape-rendering="geometricPrecision" stroke="white" stroke-miterlimit="1.45">
      <rect x="693.2199" width="159.625" height="23.6016" y="310.4469" clip-path="url(#clipPath2)" stroke="none"/>
    </g>
    <g stroke-linecap="butt" font-size="16px" transform="matrix(1,0,0,1,165,7)" fill="navy" text-rendering="geometricPrecision" font-family="sans-serif" shape-rendering="geometricPrecision" stroke="navy" stroke-miterlimit="1.45">
      <text x="695.2198" xml:space="preserve" y="328.5328" clip-path="url(#clipPath2)" stroke="none">ecrm:P10_falls_within</text>
    </g>
    <g stroke-linecap="butt" transform="matrix(1,0,0,1,165,7)" fill="green" text-rendering="geometricPrecision" shape-rendering="geometricPrecision" stroke="green" stroke-miterlimit="1.45">
      <path fill="none" d="M773.0323 397.4662 L773.0323 434.0666 L900.6305 434.0666" clip-path="url(#clipPath2)"/>
    </g>
    <g stroke-linecap="butt" transform="matrix(1,0,0,1,165,7)" fill-opacity="0" fill="rgb(0,0,0)" text-rendering="geometricPrecision" shape-rendering="geometricPrecision" stroke="rgb(0,0,0)" stroke-opacity="0" stroke-miterlimit="1.45">
      <path d="M773.0323 389.4662 C775.2415 389.4662 777.0323 391.257 777.0323 393.4662 C777.0323 395.6753 775.2415 397.4662 773.0323 397.4662 C770.8232 397.4662 769.0323 395.6753 769.0323 393.4662 C769.0323 391.257 770.8232 389.4662 773.0323 389.4662 Z" stroke="none" clip-path="url(#clipPath2)"/>
    </g>
    <g stroke-linecap="butt" transform="matrix(1,0,0,1,165,7)" fill="green" text-rendering="geometricPrecision" shape-rendering="geometricPrecision" stroke="green" stroke-miterlimit="1.45">
      <path fill="none" d="M773.0323 389.4662 C775.2415 389.4662 777.0323 391.257 777.0323 393.4662 C777.0323 395.6753 775.2415 397.4662 773.0323 397.4662 C770.8232 397.4662 769.0323 395.6753 769.0323 393.4662 C769.0323 391.257 770.8232 389.4662 773.0323 389.4662 Z" clip-path="url(#clipPath2)"/>
      <path fill="white" d="M915.6305 434.0666 L899.6305 428.0666 L899.6305 440.0666 Z" clip-path="url(#clipPath2)" stroke="none"/>
      <path fill="none" d="M915.6305 434.0666 L899.6305 428.0666 L899.6305 440.0666 Z" clip-path="url(#clipPath2)"/>
      <rect x="809.7533" y="422.2658" clip-path="url(#clipPath2)" fill="white" width="60.0312" height="23.6016" stroke="none"/>
      <text x="811.7533" font-size="16px" y="440.3518" clip-path="url(#clipPath2)" font-family="sans-serif" stroke="none" xml:space="preserve">dct:type</text>
      <path fill="none" d="M773.0323 397.4662 L773.0323 465.1877 L900.6305 465.1877" clip-path="url(#clipPath2)"/>
    </g>
    <g stroke-linecap="butt" transform="matrix(1,0,0,1,165,7)" fill-opacity="0" fill="rgb(0,0,0)" text-rendering="geometricPrecision" shape-rendering="geometricPrecision" stroke="rgb(0,0,0)" stroke-opacity="0" stroke-miterlimit="1.45">
      <path d="M773.0323 389.4662 C775.2415 389.4662 777.0323 391.257 777.0323 393.4662 C777.0323 395.6753 775.2415 397.4662 773.0323 397.4662 C770.8232 397.4662 769.0323 395.6753 769.0323 393.4662 C769.0323 391.257 770.8232 389.4662 773.0323 389.4662 Z" stroke="none" clip-path="url(#clipPath2)"/>
    </g>
    <g stroke-linecap="butt" transform="matrix(1,0,0,1,165,7)" fill="green" text-rendering="geometricPrecision" shape-rendering="geometricPrecision" stroke="green" stroke-miterlimit="1.45">
      <path fill="none" d="M773.0323 389.4662 C775.2415 389.4662 777.0323 391.257 777.0323 393.4662 C777.0323 395.6753 775.2415 397.4662 773.0323 397.4662 C770.8232 397.4662 769.0323 395.6753 769.0323 393.4662 C769.0323 391.257 770.8232 389.4662 773.0323 389.4662 Z" clip-path="url(#clipPath2)"/>
      <path fill="white" d="M915.6305 465.1877 L899.6305 459.1877 L899.6305 471.1877 Z" clip-path="url(#clipPath2)" stroke="none"/>
      <path fill="none" d="M915.6305 465.1877 L899.6305 459.1877 L899.6305 471.1877 Z" clip-path="url(#clipPath2)"/>
      <rect x="805.308" y="453.3869" clip-path="url(#clipPath2)" fill="white" width="68.9219" height="23.6016" stroke="none"/>
      <text x="807.308" font-size="16px" y="471.4729" clip-path="url(#clipPath2)" font-family="sans-serif" stroke="none" xml:space="preserve">rdfs:label</text>
      <path fill="none" d="M763.0323 383.4662 L710.3739 383.4662" clip-path="url(#clipPath2)" stroke="black"/>
      <path fill="black" d="M702.3739 383.4662 L714.3739 388.4662 L711.3739 383.4662 L714.3739 378.4662 Z" clip-path="url(#clipPath2)" stroke="none"/>
      <path fill="none" d="M773.0323 393.4662 L773.0323 495.1877 L887.6305 495.1877" clip-path="url(#clipPath2)" stroke="black"/>
      <path fill="black" d="M895.6305 495.1877 L883.6305 490.1877 L886.6305 495.1877 L883.6305 500.1877 Z" clip-path="url(#clipPath2)" stroke="none"/>
      <rect x="784.6439" y="483.3869" clip-path="url(#clipPath2)" fill="white" width="90.25" height="23.6016" stroke="none"/>
    </g>
    <g font-size="16px" stroke-linecap="butt" transform="matrix(1,0,0,1,165,7)" text-rendering="geometricPrecision" font-family="sans-serif" shape-rendering="geometricPrecision" stroke-miterlimit="1.45">
      <text x="786.6439" xml:space="preserve" y="501.4729" clip-path="url(#clipPath2)" stroke="none">owl:sameAs</text>
    </g>
  </g>
</svg>
